<svg id="Layer_1" data-name="Layer 1" xmlns="http://www.w3.org/2000/svg" viewBox="0 0 1617.55 1686.59"><defs><style>.cls-1{fill:#fff;}</style></defs><path class="cls-1" d="M1706.9,301.61h-225V235.33a78.63,78.63,0,0,0-157.25,0v66.28H675.36V235.33a78.63,78.63,0,0,0-157.25,0v66.28h-225A101.87,101.87,0,0,0,191.23,403.48V1741.42A101.87,101.87,0,0,0,293.1,1843.29H1706.9a101.87,101.87,0,0,0,101.87-101.87V403.48A101.87,101.87,0,0,0,1706.9,301.61Zm-27,1412.79H320.12V844.94H1679.88Z" transform="translate(-191.23 -156.71)"/><rect class="cls-1" x="508.42" y="813.96" width="153.12" height="153.12"/><rect class="cls-1" x="735.16" y="813.96" width="153.12" height="153.12"/><rect class="cls-1" x="961.89" y="813.96" width="153.12" height="153.12"/><rect class="cls-1" x="1188.63" y="813.96" width="153.12" height="153.12"/><rect class="cls-1" x="275.8" y="1045.12" width="153.12" height="153.12"/><rect class="cls-1" x="1188.63" y="1045.12" width="153.12" height="153.12"/><rect class="cls-1" x="275.8" y="1276.27" width="153.12" height="153.12"/><rect class="cls-1" x="961.89" y="1276.27" width="153.12" height="153.12"/><rect class="cls-1" x="504" y="1045.12" width="153.12" height="153.12"/><rect class="cls-1" x="960.42" y="1045.12" width="153.12" height="153.12"/><rect class="cls-1" x="504.5" y="1276.27" width="153.12" height="153.12"/><rect class="cls-1" x="733.2" y="1276.27" width="153.12" height="153.12"/><path class="cls-1" d="M946.46,1351.38a39.11,39.11,0,0,0,55.32,0l90.67-90.68a39.1,39.1,0,0,0,0-55.31h0a39.13,39.13,0,0,0-55.32,0l-63,63-11.25-11.25a39.12,39.12,0,1,0-55.32,55.32Z" transform="translate(-191.23 -156.71)"/></svg>