<?xml version="1.0" encoding="UTF-8"?>
<svg id="Layer_1" data-name="Layer 1" xmlns="http://www.w3.org/2000/svg" viewBox="0 0 3838.64 359.73">
  <defs>
    <style>
      .cls-1 {
        fill: #fff;
      }

      .cls-2 {
        fill: #1e274a;
      }
    </style>
  </defs>
  <rect class="cls-2" x="327.45" y="86.74" width="2398.01" height="268.74"/>
  <g>
    <path class="cls-2" d="M153.04,86.63c11.25,19.6,22.01,38.39,32.83,57.16,6.87,11.92,13.81,23.8,20.73,35.68,1.05,1.8,1.33,2.57-.95,4.36-9.43,7.36-18.34,15.38-27.5,23.08-7.51,6.32-15.19,12.44-22.61,18.86-1.79,1.55-3.04,1.33-4.49,.1-8.89-7.51-17.71-15.1-26.63-22.58-7.27-6.09-14.58-12.12-21.99-18.04-2.64-2.11-3.39-3.64-1.39-7.07,16.52-28.42,32.75-57,49.05-85.54,.95-1.67,1.71-3.44,2.97-6Z"/>
    <path class="cls-2" d="M149.36,231.37c-.98,.73-1.83,1.29-2.59,1.94-7.03,5.96-14.01,11.98-21.07,17.9-7.42,6.22-14.91,12.36-22.38,18.54-3.8,3.14-7.82,6.05-11.3,9.5-1.96,1.94-3.65,1.62-5.61,.88-10.83-4.06-21.62-8.24-32.48-12.23-2.47-.91-3.45-1.23-1.69-4.25,11.69-20.05,23.07-40.28,34.55-60.45,2.67-4.69,5.45-9.31,7.98-14.07,1.13-2.12,2.17-2.09,3.79-.72,8.54,7.22,17.07,14.45,25.65,21.61,7.56,6.32,15.19,12.55,22.77,18.84,.72,.6,1.31,1.36,2.39,2.49Z"/>
    <path class="cls-2" d="M210.58,186.79c11.46,19.76,22.76,39.23,34.04,58.72,3.6,6.21,7.06,12.51,10.76,18.67,1.23,2.05,.16,2.66-1.38,3.23-11.29,4.19-22.61,8.28-33.86,12.59-4.43,1.7-6.39-2.03-8.76-3.96-16.29-13.26-32.3-26.86-48.47-40.27-5.32-4.42-5.24-4.38,.14-8.85,11.38-9.45,22.54-19.14,33.82-28.71,4.51-3.82,9.08-7.57,13.71-11.42Z"/>
    <path class="cls-2" d="M210.84,283.43c-11,4.08-21.79,8.08-32.57,12.1-7.09,2.64-14.21,5.23-21.24,8.02-2.12,.84-3.98,1.14-6.19,.31-17.41-6.52-34.83-12.98-52.29-19.35-2.56-.93-2.35-1.87-.62-3.31,15.48-12.85,31.01-25.63,46.4-38.58,3.12-2.63,6.14-7.22,9.49-7.15,3.06,.07,6,4.67,9.05,7.21,14.16,11.86,28.34,23.7,42.51,35.56,1.75,1.47,4.11,2.24,5.46,5.19Z"/>
    <path class="cls-2" d="M301.29,359.73c-46.29-17.19-92.44-34.32-138.95-51.59,3.08-3.42,7.3-3.65,10.82-5.05,12.77-5.06,25.78-9.52,38.57-14.52,3.52-1.37,6.02-.5,8.55,1.64,13.26,11.22,26.46,22.52,39.79,33.68,13.31,11.15,26.74,22.16,40.11,33.24,.61,.5,1.33,.99,1.11,2.61Z"/>
    <path class="cls-2" d="M145.12,307.88c-46.39,17.25-92.22,34.3-138.83,51.63,2.95-4.73,7.18-7.11,10.63-10.1,16.26-14.07,32.84-27.78,49.34-41.57,7.49-6.26,15.09-12.38,22.56-18.66,1.55-1.3,2.71-1.82,4.84-1.01,16.4,6.22,32.88,12.25,49.33,18.37,.57,.21,1.06,.65,2.13,1.34Z"/>
    <path class="cls-2" d="M306.37,355.48c-28.05-23.47-55.98-46.84-84.34-70.57,12.15-4.5,23.8-8.8,35.43-13.16,2.08-.78,2.57,.69,3.31,1.97,9.09,15.85,18.18,31.71,27.29,47.56,5.99,10.41,12.04,20.8,18.01,31.22,.37,.64,1.17,1.27,.29,2.98Z"/>
    <path class="cls-2" d="M85.14,285.14c-28.33,23.79-56.4,47.37-84.46,70.94-.23-.15-.45-.3-.68-.45,3.56-6.39,7.07-12.82,10.69-19.18,9.12-16.02,18.29-32.01,27.43-48.02,2.86-5,5.78-9.97,8.5-15.05,1.03-1.93,1.97-1.99,3.92-1.24,11.3,4.37,22.67,8.54,34.61,13Z"/>
  </g>
  <g>
    <path class="cls-1" d="M440.67,195.95c-3.39-14.46-14.46-22.83-30.51-22.83-24.86,0-39.1,18.31-39.1,49.95s14.24,50.17,38.19,50.17c17.4,0,27.8-8.59,31.87-26.67h35.93c-4.07,34.13-29.61,55.37-66.9,55.37-44.52,0-73-30.74-73-78.87s28.02-78.65,72.77-78.65c36.39,0,61.25,19.44,65.31,51.53h-34.58Z"/>
    <path class="cls-1" d="M498.07,225.55c.9-12.88,3.39-20.57,8.81-26.67,7.01-7.91,20.11-12.43,35.48-12.43,27.12,0,42.49,12.88,42.49,35.48v51.3c0,8.59,1.13,10.4,5.88,10.4,1.81,0,2.94-.23,5.42-1.13v16.05c-4.97,1.13-9.27,1.58-13.56,1.58-9.94,0-14.46-4.29-16.27-14.69-11.07,11.07-23.05,16.04-37.74,16.04-21.24,0-35.71-13.11-35.71-32.32,0-17.63,10.85-28.48,33-33l24.18-4.75c13.11-2.49,15.82-4.52,15.82-11.3,0-10.62-9.27-17.18-23.96-17.18-10.62,0-18.98,3.39-21.92,9.27-1.58,2.94-2.03,5.42-2.49,13.33h-19.44Zm68.25,16.95c-3.84,1.58-7.46,2.71-12.88,4.07l-21.24,4.97c-12.66,2.94-18.31,8.14-18.31,16.72,0,9.94,8.14,16.72,20.34,16.72,17.63,0,32.09-12.88,32.09-28.48v-14.01Z"/>
    <path class="cls-1" d="M636.16,189.39v17.18c4.29-6.33,6.1-8.81,9.04-11.53,4.97-5.2,12.88-8.59,19.44-8.59,4.07,0,7.91,.9,11.53,2.71v18.76c-4.29-.9-6.55-1.13-9.49-1.13-16.72,0-29.61,14.92-29.61,34.35v57.4h-20.79v-109.16h19.89Z"/>
    <path class="cls-1" d="M708.48,249.06c1.58,22.37,12.88,35.03,31.64,35.03,12.88,0,21.47-6.1,26.44-18.98h19.89c-5.2,22.83-22.6,36.38-46.78,36.38-30.74,0-51.98-23.5-51.98-57.63s20.79-57.4,51.3-57.4c21.7,0,37.52,11.53,44.75,32.54,2.71,8.14,4.07,16.95,4.29,30.06h-79.55Zm57.86-15.14c-.9-19.89-10.85-30.96-27.35-30.96s-29.15,12.66-30.28,30.96h57.63Z"/>
    <path class="cls-1" d="M828.03,249.06c1.58,22.37,12.88,35.03,31.64,35.03,12.88,0,21.47-6.1,26.44-18.98h19.89c-5.2,22.83-22.6,36.38-46.78,36.38-30.74,0-51.98-23.5-51.98-57.63s20.79-57.4,51.3-57.4c21.7,0,37.52,11.53,44.75,32.54,2.71,8.14,4.07,16.95,4.29,30.06h-79.55Zm57.86-15.14c-.9-19.89-10.85-30.96-27.35-30.96s-29.15,12.66-30.28,30.96h57.63Z"/>
    <path class="cls-1" d="M952.1,189.39v17.18c4.29-6.33,6.1-8.81,9.04-11.53,4.97-5.2,12.88-8.59,19.44-8.59,4.07,0,7.91,.9,11.53,2.71v18.76c-4.29-.9-6.55-1.13-9.49-1.13-16.72,0-29.61,14.92-29.61,34.35v57.4h-20.79v-109.16h19.89Z"/>
    <path class="cls-1" d="M1222.62,224.42c0,45.88-30.51,77.52-74.58,77.52s-74.81-31.64-74.81-78.87c0-24.63,8.36-45.88,23.28-59.44,13.79-12.66,31.41-19.21,51.3-19.21,45.43,0,74.81,31.41,74.81,80Zm-113.9-1.36c0,31.41,14.69,50.17,39.32,50.17s39.1-18.76,39.1-49.49-14.46-50.62-39.32-50.62-39.1,18.76-39.1,49.95Z"/>
    <path class="cls-1" d="M1267.59,189.39v17.18c4.29-6.33,6.1-8.81,9.04-11.53,4.97-5.2,12.88-8.59,19.44-8.59,4.07,0,7.91,.9,11.53,2.71v18.76c-4.29-.9-6.55-1.13-9.49-1.13-16.72,0-29.61,14.92-29.61,34.35v57.4h-20.79v-109.16h19.89Z"/>
    <path class="cls-1" d="M1347.14,171.99h-20.79v-24.18h20.79v24.18Zm0,126.56h-20.79v-109.16h20.79v109.16Z"/>
    <path class="cls-1" d="M1392.79,249.06c1.58,22.37,12.88,35.03,31.64,35.03,12.88,0,21.47-6.1,26.44-18.98h19.89c-5.2,22.83-22.6,36.38-46.78,36.38-30.74,0-51.98-23.5-51.98-57.63s20.79-57.4,51.3-57.4c21.7,0,37.52,11.53,44.75,32.54,2.71,8.14,4.07,16.95,4.29,30.06h-79.55Zm57.86-15.14c-.9-19.89-10.85-30.96-27.35-30.96s-29.15,12.66-30.28,30.96h57.63Z"/>
    <path class="cls-1" d="M1516.86,189.39v12.43c10.85-11.53,19.66-15.37,34.58-15.37,12.88,0,23.5,4.29,29.61,11.98,5.2,6.78,7.23,14.46,7.23,27.12v73h-20.79v-71.42c0-14.92-6.78-22.15-21.02-22.15-17.85,0-28.7,10.4-28.7,27.35v66.22h-20.79v-109.16h19.89Z"/>
    <path class="cls-1" d="M1662.18,205.89h-19.66v68.48c0,6.33,2.94,9.94,8.14,9.94,2.94,0,5.88-.68,11.53-2.94v16.95c-9.04,2.03-12.43,2.49-17.4,2.49-15.59,0-23.05-8.36-23.05-26.44v-68.48h-14.69v-16.5h14.69v-34.58h20.79v34.58h19.66v16.5Z"/>
    <path class="cls-1" d="M1681.84,225.55c.9-12.88,3.39-20.57,8.81-26.67,7.01-7.91,20.11-12.43,35.48-12.43,27.12,0,42.49,12.88,42.49,35.48v51.3c0,8.59,1.13,10.4,5.88,10.4,1.81,0,2.94-.23,5.42-1.13v16.05c-4.97,1.13-9.27,1.58-13.56,1.58-9.94,0-14.46-4.29-16.27-14.69-11.07,11.07-23.05,16.04-37.74,16.04-21.24,0-35.71-13.11-35.71-32.32,0-17.63,10.85-28.48,33-33l24.18-4.75c13.11-2.49,15.82-4.52,15.82-11.3,0-10.62-9.27-17.18-23.96-17.18-10.62,0-18.98,3.39-21.92,9.27-1.58,2.94-2.03,5.42-2.49,13.33h-19.44Zm68.25,16.95c-3.84,1.58-7.46,2.71-12.88,4.07l-21.24,4.97c-12.66,2.94-18.31,8.14-18.31,16.72,0,9.94,8.14,16.72,20.34,16.72,17.63,0,32.09-12.88,32.09-28.48v-14.01Z"/>
    <path class="cls-1" d="M1843.2,205.89h-19.66v68.48c0,6.33,2.94,9.94,8.14,9.94,2.94,0,5.88-.68,11.53-2.94v16.95c-9.04,2.03-12.43,2.49-17.4,2.49-15.59,0-23.05-8.36-23.05-26.44v-68.48h-14.69v-16.5h14.69v-34.58h20.79v34.58h19.66v16.5Z"/>
    <path class="cls-1" d="M1884.1,171.99h-20.79v-24.18h20.79v24.18Zm0,126.56h-20.79v-109.16h20.79v109.16Z"/>
    <path class="cls-1" d="M2014.05,244.76c0,33.45-21.47,56.72-52.66,56.72s-52.43-23.28-52.43-57.63,21.24-57.4,52.43-57.4,52.66,23.05,52.66,58.31Zm-84.07-.9c0,25.54,11.53,40.23,31.64,40.23s31.41-14.69,31.41-39.55c0-26.22-11.3-40.68-31.64-40.68s-31.41,14.69-31.41,40Z"/>
    <path class="cls-1" d="M2058.57,189.39v12.43c10.85-11.53,19.66-15.37,34.58-15.37,12.88,0,23.5,4.29,29.61,11.98,5.2,6.78,7.23,14.46,7.23,27.12v73h-20.79v-71.42c0-14.92-6.78-22.15-21.02-22.15-17.85,0-28.7,10.4-28.7,27.35v66.22h-20.79v-109.16h19.89Z"/>
    <path class="cls-1" d="M2229.19,147.81h51.08c30.51,0,46.56,5.42,60.12,20.79,11.98,13.56,18.53,32.54,18.53,53.79s-7.23,42.71-19.66,56.27c-13.11,14.01-29.83,19.89-57.86,19.89h-52.21V147.81Zm56.73,121.81c15.37,0,24.63-4.29,30.96-14.69,4.97-8.36,7.46-18.76,7.46-31.87s-2.26-22.6-7.23-31.19c-5.88-10.4-15.14-15.14-28.93-15.14h-25.09v92.88h22.83Z"/>
    <path class="cls-1" d="M2383.55,225.55c.9-12.88,3.39-20.57,8.81-26.67,7.01-7.91,20.11-12.43,35.48-12.43,27.12,0,42.49,12.88,42.49,35.48v51.3c0,8.59,1.13,10.4,5.88,10.4,1.81,0,2.94-.23,5.42-1.13v16.05c-4.97,1.13-9.27,1.58-13.56,1.58-9.94,0-14.46-4.29-16.27-14.69-11.07,11.07-23.05,16.04-37.74,16.04-21.24,0-35.71-13.11-35.71-32.32,0-17.63,10.85-28.48,33-33l24.18-4.75c13.11-2.49,15.82-4.52,15.82-11.3,0-10.62-9.27-17.18-23.96-17.18-10.62,0-18.98,3.39-21.92,9.27-1.58,2.94-2.03,5.42-2.49,13.33h-19.44Zm68.25,16.95c-3.84,1.58-7.46,2.71-12.88,4.07l-21.24,4.97c-12.66,2.94-18.31,8.14-18.31,16.72,0,9.94,8.14,16.72,20.34,16.72,17.63,0,32.09-12.88,32.09-28.48v-14.01Z"/>
    <path class="cls-1" d="M2590.79,189.39l-48.14,122.26c-6.1,15.14-14.24,21.47-27.57,21.47-5.42,0-9.94-.9-16.72-3.39v-16.95c6.55,2.49,9.04,2.94,13.11,2.94,7.46,0,12.2-3.62,15.14-11.3l2.94-8.59-45.2-106.44h22.37l24.18,62.38c3.62,9.49,4.29,11.07,8.14,23.05,2.49-8.14,6.1-19.44,7.46-23.05l22.6-62.38h21.7Z"/>
    <path class="cls-1" d="M2668.31,222.84c-2.94-13.56-10.4-19.21-24.86-19.21-12.43,0-20.79,5.2-20.79,12.88,0,5.42,3.84,9.04,12.66,11.3l25.31,6.55c22.83,5.88,32.32,15.37,32.32,32.09,0,21.47-17.63,35.03-45.43,35.03-29.61,0-47.23-14.46-49.49-40.45h20.57c1.13,14.46,11.98,23.05,29.38,23.05,14.92,0,24.63-6.55,24.63-16.72,0-7.23-4.75-11.07-17.4-14.46l-21.7-5.42c-11.53-2.94-18.53-6.1-23.05-10.17-4.97-4.29-8.14-11.53-8.14-18.76,0-18.76,17.4-32.09,42.04-32.09,15.59,0,28.48,5.2,36.16,14.46,4.75,5.88,6.78,11.75,7.68,21.92h-19.89Z"/>
  </g>
</svg>