<?xml version="1.0" encoding="UTF-8"?>
<svg id="Layer_1" data-name="Layer 1" xmlns="http://www.w3.org/2000/svg" viewBox="0 0 915.06 373.18">
  <defs>
    <style>
      .cls-1 {
        fill: #1e274a;
      }
    </style>
  </defs>
  <path class="cls-1" d="M792.97,176.74h-25.09v92.88h22.83c15.37,0,24.63-4.29,30.96-14.69,4.97-8.36,7.46-18.76,7.46-31.87s-2.26-22.6-7.23-31.19c-5.88-10.4-15.14-15.14-28.93-15.14Zm-172.89-3.62c-24.41,0-39.1,18.76-39.1,49.95s14.69,50.17,39.32,50.17,39.1-18.76,39.1-49.49-14.46-50.62-39.32-50.62ZM0,73.18V373.18H915.06V73.18H0ZM255.27,243.94c3.34,5.78,6.57,11.62,10,17.35,1.14,1.9,.15,2.47-1.28,3-10.49,3.9-21.02,7.7-31.47,11.7-4.12,1.58-5.94-1.89-8.14-3.68-15.14-12.33-30.02-24.96-45.05-37.43-4.95-4.1-4.87-4.07,.13-8.22,10.57-8.78,20.95-17.79,31.44-26.68,4.19-3.55,8.44-7.04,12.74-10.62,10.65,18.37,21.16,36.47,31.64,54.58Zm-133.47-62.59c15.35-26.41,30.44-52.98,45.59-79.51,.88-1.55,1.59-3.2,2.76-5.58,10.46,18.21,20.46,35.68,30.51,53.13,6.38,11.08,12.83,22.12,19.27,33.16,.98,1.68,1.24,2.39-.89,4.05-8.76,6.84-17.05,14.29-25.56,21.45-6.98,5.87-14.12,11.56-21.01,17.53-1.67,1.44-2.82,1.23-4.18,.09-8.26-6.98-16.46-14.04-24.75-20.99-6.75-5.66-13.55-11.27-20.44-16.77-2.45-1.96-3.15-3.38-1.29-6.57Zm-45.35,79.45c10.86-18.63,21.44-37.44,32.11-56.18,2.48-4.36,5.07-8.65,7.42-13.08,1.05-1.97,2.02-1.94,3.52-.67,7.93,6.71,15.87,13.43,23.84,20.09,7.03,5.87,14.12,11.66,21.16,17.51,.67,.56,1.22,1.27,2.22,2.32-.92,.68-1.7,1.2-2.41,1.8-6.53,5.54-13.02,11.13-19.58,16.64-6.9,5.79-13.86,11.49-20.8,17.23-3.53,2.92-7.27,5.62-10.51,8.83-1.82,1.8-3.4,1.5-5.21,.82-10.07-3.77-20.09-7.66-30.19-11.37-2.29-.84-3.21-1.14-1.57-3.95Zm-48.55,85.48c3.31-5.94,6.57-11.91,9.94-17.82,8.47-14.89,17-29.75,25.49-44.63,2.66-4.65,5.37-9.27,7.9-13.99,.96-1.79,1.83-1.85,3.64-1.15,10.5,4.06,21.07,7.94,32.16,12.08-26.33,22.12-52.42,44.02-78.5,65.93-.21-.14-.42-.28-.63-.42Zm5.84,3.61c2.74-4.39,6.67-6.61,9.88-9.38,15.12-13.08,30.52-25.82,45.86-38.64,6.96-5.82,14.03-11.5,20.97-17.34,1.44-1.21,2.52-1.69,4.5-.94,15.25,5.78,30.56,11.39,45.85,17.07,.53,.2,.98,.61,1.98,1.24-43.12,16.04-85.71,31.88-129.03,47.99Zm134.35-51.73c-16.18-6.06-32.37-12.07-48.6-17.98-2.38-.87-2.18-1.74-.57-3.07,14.38-11.94,28.82-23.82,43.13-35.86,2.9-2.44,5.71-6.71,8.82-6.65,2.85,.06,5.58,4.34,8.41,6.7,13.16,11.02,26.34,22.03,39.51,33.05,1.63,1.36,3.82,2.09,5.07,4.82-10.22,3.8-20.25,7.51-30.27,11.24-6.59,2.46-13.2,4.86-19.74,7.46-1.97,.78-3.7,1.06-5.75,.29Zm139.83,51.94c-43.02-15.97-85.91-31.9-129.14-47.95,2.87-3.18,6.79-3.4,10.06-4.69,11.87-4.71,23.96-8.85,35.85-13.49,3.27-1.28,5.6-.46,7.95,1.52,12.33,10.43,24.6,20.93,36.98,31.3,12.37,10.36,24.85,20.59,37.28,30.89,.56,.47,1.24,.92,1.03,2.42Zm4.72-3.95c-26.08-21.82-52.03-43.53-78.38-65.59,11.29-4.19,22.12-8.18,32.93-12.23,1.93-.72,2.39,.64,3.08,1.83,8.45,14.74,16.89,29.47,25.36,44.2,5.57,9.68,11.19,19.33,16.74,29.02,.34,.6,1.09,1.18,.27,2.77Zm136.8-44.2c-44.52,0-73-30.74-73-78.87s28.02-78.65,72.77-78.65c36.39,0,61.25,19.44,65.31,51.53h-34.58c-3.39-14.46-14.46-22.83-30.51-22.83-24.86,0-39.1,18.31-39.1,49.95s14.24,50.17,38.19,50.17c17.4,0,27.8-8.59,31.87-26.67h35.93c-4.07,34.13-29.61,55.37-66.9,55.37Zm170.85,0c-44.75,0-74.81-31.64-74.81-78.87,0-24.63,8.36-45.88,23.28-59.44,13.79-12.66,31.41-19.21,51.3-19.21,45.43,0,74.81,31.41,74.81,80,0,45.88-30.51,77.52-74.58,77.52Zm223.74-23.28c-13.11,14.01-29.83,19.89-57.86,19.89h-52.21V147.81h51.08c30.51,0,46.56,5.42,60.12,20.79,11.98,13.56,18.53,32.54,18.53,53.79s-7.23,42.71-19.66,56.27Z"/>
</svg>