<?xml version="1.0" encoding="UTF-8"?>
<svg id="Layer_1" data-name="Layer 1" xmlns="http://www.w3.org/2000/svg" viewBox="0 0 891.55 711.12">
  <defs>
    <style>
      .cls-1 {
        fill: #1e274a;
      }
    </style>
  </defs>
  <g>
    <path class="cls-1" d="M153.04,254.12c11.25,19.6,22.01,38.39,32.83,57.16,6.87,11.92,13.81,23.8,20.73,35.68,1.05,1.8,1.33,2.57-.95,4.36-9.43,7.36-18.34,15.38-27.5,23.08-7.51,6.32-15.19,12.44-22.61,18.86-1.79,1.55-3.04,1.33-4.49,.1-8.89-7.51-17.71-15.1-26.63-22.58-7.27-6.09-14.58-12.12-21.99-18.04-2.64-2.11-3.39-3.64-1.39-7.07,16.52-28.42,32.75-57,49.05-85.54,.95-1.67,1.71-3.44,2.97-6Z"/>
    <path class="cls-1" d="M149.36,398.86c-.98,.73-1.83,1.29-2.59,1.94-7.03,5.96-14.01,11.98-21.07,17.9-7.42,6.22-14.91,12.36-22.38,18.54-3.8,3.14-7.82,6.05-11.3,9.5-1.96,1.94-3.65,1.62-5.61,.88-10.83-4.06-21.62-8.24-32.48-12.23-2.47-.91-3.45-1.23-1.69-4.25,11.69-20.05,23.07-40.28,34.55-60.45,2.67-4.69,5.45-9.31,7.98-14.07,1.13-2.12,2.17-2.09,3.79-.72,8.54,7.22,17.07,14.45,25.65,21.61,7.56,6.32,15.19,12.55,22.77,18.84,.72,.6,1.31,1.36,2.39,2.49Z"/>
    <path class="cls-1" d="M210.58,354.28c11.46,19.76,22.76,39.23,34.04,58.72,3.6,6.21,7.06,12.51,10.76,18.67,1.23,2.05,.16,2.66-1.38,3.23-11.29,4.19-22.61,8.28-33.86,12.59-4.43,1.7-6.39-2.03-8.76-3.96-16.29-13.26-32.3-26.86-48.47-40.27-5.32-4.42-5.24-4.38,.14-8.85,11.38-9.45,22.54-19.14,33.82-28.71,4.51-3.82,9.08-7.57,13.71-11.42Z"/>
    <path class="cls-1" d="M210.84,450.91c-11,4.08-21.79,8.08-32.57,12.1-7.09,2.64-14.21,5.23-21.24,8.02-2.12,.84-3.98,1.14-6.19,.31-17.41-6.52-34.83-12.98-52.29-19.35-2.56-.93-2.35-1.87-.62-3.31,15.48-12.85,31.01-25.63,46.4-38.58,3.12-2.63,6.14-7.22,9.49-7.15,3.06,.07,6,4.67,9.05,7.21,14.16,11.86,28.34,23.7,42.51,35.56,1.75,1.47,4.11,2.24,5.46,5.19Z"/>
    <path class="cls-1" d="M301.29,527.22c-46.29-17.19-92.44-34.32-138.95-51.59,3.08-3.42,7.3-3.65,10.82-5.05,12.77-5.06,25.78-9.52,38.57-14.52,3.52-1.37,6.02-.5,8.55,1.64,13.26,11.22,26.46,22.52,39.79,33.68,13.31,11.15,26.74,22.16,40.11,33.24,.61,.5,1.33,.99,1.11,2.61Z"/>
    <path class="cls-1" d="M145.12,475.37c-46.39,17.25-92.22,34.3-138.83,51.63,2.95-4.73,7.18-7.11,10.63-10.1,16.26-14.07,32.84-27.78,49.34-41.57,7.49-6.26,15.09-12.38,22.56-18.66,1.55-1.3,2.71-1.82,4.84-1.01,16.4,6.22,32.88,12.25,49.33,18.37,.57,.21,1.06,.65,2.13,1.34Z"/>
    <path class="cls-1" d="M306.37,522.97c-28.05-23.47-55.98-46.84-84.34-70.57,12.15-4.5,23.8-8.8,35.43-13.16,2.08-.78,2.57,.69,3.31,1.97,9.09,15.85,18.18,31.71,27.29,47.56,5.99,10.41,12.04,20.8,18.01,31.22,.37,.64,1.17,1.27,.29,2.98Z"/>
    <path class="cls-1" d="M85.14,452.63c-28.33,23.79-56.4,47.37-84.46,70.94-.23-.15-.45-.3-.68-.45,3.56-6.39,7.07-12.82,10.69-19.18,9.12-16.02,18.29-32.01,27.43-48.02,2.86-5,5.78-9.97,8.5-15.05,1.03-1.93,1.97-1.99,3.92-1.24,11.3,4.37,22.67,8.54,34.61,13Z"/>
  </g>
  <g>
    <path class="cls-1" d="M269.21,250.85c-1.44-6.14-6.14-9.7-12.96-9.7-10.56,0-16.61,7.78-16.61,21.21s6.05,21.31,16.22,21.31c7.39,0,11.81-3.65,13.54-11.33h15.26c-1.73,14.5-12.58,23.52-28.41,23.52-18.91,0-31.01-13.06-31.01-33.5s11.9-33.41,30.91-33.41c15.46,0,26.01,8.26,27.74,21.89h-14.69Z"/>
    <path class="cls-1" d="M293.6,262.66c.86-10.65,7.49-15.84,20.54-15.84,7.01,0,12.38,1.63,16.03,4.8,3.36,2.98,4.61,6.72,4.61,13.54v21.31c0,4.99,.19,5.66,1.73,7.97h-13.92c-.58-1.63-.58-1.92-1.06-3.65-4.51,3.74-7.78,4.9-13.25,4.9-10.27,0-17.09-5.76-17.09-14.5s5.47-13.25,18.43-15.36l7.39-1.25c3.07-.48,4.13-1.25,4.13-3.17,0-2.59-2.69-4.22-7.1-4.22-4.99,0-7.68,1.73-8.25,5.47h-12.19Zm27.93,9.7c-1.44,.58-2.69,.96-4.99,1.44l-4.9,1.06c-4.9,1.15-7.01,2.78-7.01,5.57,0,3.07,2.59,4.9,6.91,4.9s7.78-1.92,9.98-5.86v-7.1Z"/>
    <path class="cls-1" d="M360.22,248.07l-.38,8.26c2.69-7.49,6.14-9.6,16.03-9.5v12.86c-1.63-.19-2.3-.19-3.46-.19-4.7,0-8.54,2.11-10.08,5.57-1.34,3.07-1.82,7.39-1.82,16.32v13.06h-13.63v-46.36h13.34Z"/>
    <path class="cls-1" d="M394.68,275.23c.86,6.34,4.61,9.79,10.46,9.79,3.65,0,6.24-1.25,8.06-4.13h13.82c-2.59,9.02-11.23,14.78-22.27,14.78-14.3,0-23.81-9.79-23.81-24.38s9.7-24.48,23.71-24.48c9.79,0,17.18,4.9,20.64,13.63,1.63,4.03,2.3,8.35,2.3,14.78h-32.93Zm18.91-9.6c-.58-5.47-3.74-8.45-9.02-8.45s-8.74,2.98-9.79,8.45h18.82Z"/>
    <path class="cls-1" d="M448.83,275.23c.86,6.34,4.61,9.79,10.46,9.79,3.65,0,6.24-1.25,8.06-4.13h13.82c-2.59,9.02-11.23,14.78-22.27,14.78-14.3,0-23.81-9.79-23.81-24.38s9.7-24.48,23.71-24.48c9.79,0,17.18,4.9,20.64,13.63,1.63,4.03,2.3,8.35,2.3,14.78h-32.93Zm18.91-9.6c-.58-5.47-3.74-8.45-9.02-8.45s-8.74,2.98-9.79,8.45h18.82Z"/>
    <path class="cls-1" d="M504.89,248.07l-.38,8.26c2.69-7.49,6.14-9.6,16.03-9.5v12.86c-1.63-.19-2.3-.19-3.46-.19-4.7,0-8.54,2.11-10.08,5.57-1.34,3.07-1.82,7.39-1.82,16.32v13.06h-13.63v-46.36h13.34Z"/>
    <path class="cls-1" d="M334.23,378.15c0,19.49-12.96,32.93-31.68,32.93s-31.77-13.44-31.77-33.5c0-10.46,3.55-19.49,9.89-25.25,5.86-5.38,13.34-8.16,21.79-8.16,19.29,0,31.77,13.34,31.77,33.98Zm-48.38-.58c0,13.34,6.24,21.31,16.7,21.31s16.61-7.97,16.61-21.02-6.14-21.5-16.7-21.5-16.61,7.97-16.61,21.21Z"/>
    <path class="cls-1" d="M357.85,363.27l-.38,8.26c2.69-7.49,6.14-9.6,16.03-9.5v12.86c-1.63-.19-2.3-.19-3.46-.19-4.7,0-8.54,2.11-10.08,5.57-1.34,3.07-1.82,7.39-1.82,16.32v13.06h-13.63v-46.36h13.34Z"/>
    <path class="cls-1" d="M394.52,356.83h-13.63v-11.23h13.63v11.23Zm0,52.8h-13.63v-46.36h13.63v46.36Z"/>
    <path class="cls-1" d="M417.95,390.43c.86,6.34,4.61,9.79,10.46,9.79,3.65,0,6.24-1.25,8.06-4.13h13.82c-2.59,9.02-11.23,14.78-22.27,14.78-14.3,0-23.81-9.79-23.81-24.38s9.7-24.48,23.71-24.48c9.79,0,17.18,4.9,20.64,13.63,1.63,4.03,2.3,8.35,2.3,14.78h-32.93Zm18.91-9.6c-.58-5.47-3.74-8.45-9.02-8.45s-8.74,2.98-9.79,8.45h18.82Z"/>
    <path class="cls-1" d="M473.91,363.27v4.51c4.99-4.61,7.87-5.86,12.67-5.86,10.08,0,16.22,6.72,16.22,17.66v30.05h-13.63v-25.25c0-4.7-.29-6.53-1.44-8.26-1.15-1.73-3.17-2.69-5.57-2.69s-4.42,.86-5.86,2.5c-1.54,1.73-2.02,3.65-2.02,7.68v26.01h-13.63v-46.36h13.25Z"/>
    <path class="cls-1" d="M538.33,373.44h-8.35v18.05c0,7.3,.29,7.87,3.46,7.87h4.9v10.27h-8.35c-5.95,0-8.93-.86-10.94-3.07-2.11-2.3-2.69-4.8-2.69-12v-21.12h-6.53v-9.6h6.53v-14.69h13.63v14.69h8.35v9.6Z"/>
    <path class="cls-1" d="M546.97,377.86c.86-10.65,7.49-15.84,20.54-15.84,7.01,0,12.38,1.63,16.03,4.8,3.36,2.98,4.61,6.72,4.61,13.54v21.31c0,4.99,.19,5.66,1.73,7.97h-13.92c-.58-1.63-.58-1.92-1.06-3.65-4.51,3.74-7.78,4.9-13.25,4.9-10.27,0-17.09-5.76-17.09-14.49s5.47-13.25,18.43-15.36l7.39-1.25c3.07-.48,4.13-1.25,4.13-3.17,0-2.59-2.69-4.22-7.1-4.22-4.99,0-7.68,1.73-8.25,5.47h-12.19Zm27.93,9.7c-1.44,.58-2.69,.96-4.99,1.44l-4.9,1.06c-4.9,1.15-7.01,2.78-7.01,5.57,0,3.07,2.59,4.9,6.91,4.9s7.78-1.92,9.98-5.86v-7.1Z"/>
    <path class="cls-1" d="M623.86,373.44h-8.35v18.05c0,7.3,.29,7.87,3.46,7.87h4.9v10.27h-8.35c-5.95,0-8.93-.86-10.94-3.07-2.11-2.3-2.69-4.8-2.69-12v-21.12h-6.53v-9.6h6.53v-14.69h13.63v14.69h8.35v9.6Z"/>
    <path class="cls-1" d="M646.71,356.83h-13.63v-11.23h13.63v11.23Zm0,52.8h-13.63v-46.36h13.63v46.36Z"/>
    <path class="cls-1" d="M705.65,386.78c0,14.01-10.37,24.09-24.67,24.09s-24.57-10.08-24.57-24.48,10.17-24.38,24.57-24.38,24.67,9.98,24.67,24.77Zm-35.52-.38c0,8.74,3.94,13.63,10.94,13.63s10.85-4.9,10.85-13.34c0-8.93-3.84-13.82-10.94-13.82s-10.85,4.9-10.85,13.53Z"/>
    <path class="cls-1" d="M728.6,363.27v4.51c4.99-4.61,7.87-5.86,12.67-5.86,10.08,0,16.22,6.72,16.22,17.66v30.05h-13.63v-25.25c0-4.7-.29-6.53-1.44-8.26-1.15-1.73-3.17-2.69-5.57-2.69s-4.42,.86-5.86,2.5c-1.54,1.73-2.02,3.65-2.02,7.68v26.01h-13.63v-46.36h13.25Z"/>
    <path class="cls-1" d="M339.98,460.8h21.69c12.96,0,19.77,2.3,25.53,8.83,5.09,5.76,7.87,13.82,7.87,22.85s-3.07,18.14-8.35,23.9c-5.57,5.95-12.67,8.45-24.57,8.45h-22.17v-64.03Zm24.09,51.74c6.53,0,10.46-1.82,13.15-6.24,2.11-3.55,3.17-7.97,3.17-13.54s-.96-9.6-3.07-13.25c-2.5-4.42-6.43-6.43-12.29-6.43h-10.66v39.45h9.7Z"/>
    <path class="cls-1" d="M405.16,493.06c.86-10.66,7.49-15.84,20.54-15.84,7.01,0,12.38,1.63,16.03,4.8,3.36,2.98,4.61,6.72,4.61,13.53v21.31c0,4.99,.19,5.66,1.73,7.97h-13.92c-.58-1.63-.58-1.92-1.06-3.65-4.51,3.74-7.78,4.9-13.25,4.9-10.27,0-17.09-5.76-17.09-14.5s5.47-13.25,18.43-15.36l7.39-1.25c3.07-.48,4.13-1.25,4.13-3.17,0-2.59-2.69-4.22-7.1-4.22-4.99,0-7.68,1.73-8.25,5.47h-12.19Zm27.93,9.7c-1.44,.58-2.69,.96-4.99,1.44l-4.9,1.06c-4.9,1.15-7.01,2.78-7.01,5.57,0,3.07,2.59,4.9,6.91,4.9s7.78-1.92,9.98-5.86v-7.1Z"/>
    <path class="cls-1" d="M498.66,478.47l-16.13,46.75c-2.59,7.58-4.13,10.27-6.53,12-2.21,1.63-5.28,2.3-10.37,2.3h-7.97v-10.27h4.03c4.8,0,7.01-1.82,7.01-5.86,0-1.63-.1-1.92-1.73-5.95l-15.26-38.97h14.59l6.82,21.21c1.34,4.32,1.34,4.42,2.4,8.26l.58,1.82c.58-3.07,1.34-6.24,2.4-10.37l6.05-20.93h14.11Z"/>
    <path class="cls-1" d="M530.25,492.39c-.58-3.46-3.36-5.28-7.87-5.28-3.94,0-6.53,1.54-6.53,3.84,0,1.73,1.34,2.59,5.66,3.55l8.54,1.82c5.66,1.15,8.54,2.4,10.56,4.51,2.21,2.11,3.46,5.57,3.46,9.31,0,9.79-7.97,15.93-20.83,15.93s-20.83-6.05-21.6-16.32h12.77c.77,4.42,3.65,6.43,9.12,6.43,4.32,0,7.1-1.73,7.1-4.51,0-2.21-1.54-3.36-5.18-4.22l-8.45-1.92c-10.18-2.21-14.11-5.95-14.11-13.34,0-9.31,7.39-14.97,19.77-14.97s19.1,5.38,20.35,15.17h-12.77Z"/>
  </g>
</svg>