<?xml version="1.0" encoding="UTF-8"?>
<svg id="Layer_1" data-name="Layer 1" xmlns="http://www.w3.org/2000/svg" viewBox="0 0 306.76 273.1">
  <defs>
    <style>
      .cls-1 {
        fill: #1e274a;
      }
    </style>
  </defs>
  <path class="cls-1" d="M153.04,0c11.25,19.6,22.01,38.39,32.83,57.16,6.87,11.92,13.81,23.8,20.73,35.68,1.05,1.8,1.33,2.57-.95,4.36-9.43,7.36-18.34,15.38-27.5,23.08-7.51,6.32-15.19,12.44-22.61,18.86-1.79,1.55-3.04,1.33-4.49,.1-8.89-7.51-17.71-15.1-26.63-22.58-7.27-6.09-14.58-12.12-21.99-18.04-2.64-2.11-3.39-3.64-1.39-7.07,16.52-28.42,32.75-57,49.05-85.54,.95-1.67,1.71-3.44,2.97-6Z"/>
  <path class="cls-1" d="M149.36,144.74c-.98,.73-1.83,1.29-2.59,1.94-7.03,5.96-14.01,11.98-21.07,17.9-7.42,6.22-14.91,12.36-22.38,18.54-3.8,3.14-7.82,6.05-11.3,9.5-1.96,1.94-3.65,1.62-5.61,.88-10.83-4.06-21.62-8.24-32.48-12.23-2.47-.91-3.45-1.23-1.69-4.25,11.69-20.05,23.07-40.28,34.55-60.45,2.67-4.69,5.45-9.31,7.98-14.07,1.13-2.12,2.17-2.09,3.79-.72,8.54,7.22,17.07,14.45,25.65,21.61,7.56,6.32,15.19,12.55,22.77,18.84,.72,.6,1.31,1.36,2.39,2.49Z"/>
  <path class="cls-1" d="M210.58,100.16c11.46,19.76,22.76,39.23,34.04,58.72,3.6,6.21,7.06,12.51,10.76,18.67,1.23,2.05,.16,2.66-1.38,3.23-11.29,4.19-22.61,8.28-33.86,12.59-4.43,1.7-6.39-2.03-8.76-3.96-16.29-13.26-32.3-26.86-48.47-40.27-5.32-4.42-5.24-4.38,.14-8.85,11.38-9.45,22.54-19.14,33.82-28.71,4.51-3.82,9.08-7.57,13.71-11.42Z"/>
  <path class="cls-1" d="M210.84,196.8c-11,4.08-21.79,8.08-32.57,12.1-7.09,2.64-14.21,5.23-21.24,8.02-2.12,.84-3.98,1.14-6.19,.31-17.41-6.52-34.83-12.98-52.29-19.35-2.56-.93-2.35-1.87-.62-3.31,15.48-12.85,31.01-25.63,46.4-38.58,3.12-2.63,6.14-7.22,9.49-7.15,3.06,.07,6,4.67,9.05,7.21,14.16,11.86,28.34,23.7,42.51,35.56,1.75,1.47,4.11,2.24,5.46,5.19Z"/>
  <path class="cls-1" d="M301.29,273.1c-46.29-17.19-92.44-34.32-138.95-51.59,3.08-3.42,7.3-3.65,10.82-5.05,12.77-5.06,25.78-9.52,38.57-14.52,3.52-1.37,6.02-.5,8.55,1.64,13.26,11.22,26.46,22.52,39.79,33.68,13.31,11.15,26.74,22.16,40.11,33.24,.61,.5,1.33,.99,1.11,2.61Z"/>
  <path class="cls-1" d="M145.12,221.25c-46.39,17.25-92.22,34.3-138.83,51.63,2.95-4.73,7.18-7.11,10.63-10.1,16.26-14.07,32.84-27.78,49.34-41.57,7.49-6.26,15.09-12.38,22.56-18.66,1.55-1.3,2.71-1.82,4.84-1.01,16.4,6.22,32.88,12.25,49.33,18.37,.57,.21,1.06,.65,2.13,1.34Z"/>
  <path class="cls-1" d="M306.37,268.85c-28.05-23.47-55.98-46.84-84.34-70.57,12.15-4.5,23.8-8.8,35.43-13.16,2.08-.78,2.57,.69,3.31,1.97,9.09,15.85,18.18,31.71,27.29,47.56,5.99,10.41,12.04,20.8,18.01,31.22,.37,.64,1.17,1.27,.29,2.98Z"/>
  <path class="cls-1" d="M85.14,198.51C56.81,222.3,28.74,245.88,.68,269.45c-.23-.15-.45-.3-.68-.45,3.56-6.39,7.07-12.82,10.69-19.18,9.12-16.02,18.29-32.01,27.43-48.02,2.86-5,5.78-9.97,8.5-15.05,1.03-1.93,1.97-1.99,3.92-1.24,11.3,4.37,22.67,8.54,34.61,13Z"/>
</svg>